<?xml version="1.0" encoding="UTF-8"?>
<svg width="265px" height="51px" viewBox="0 0 265 51" version="1.1" xmlns="http://www.w3.org/2000/svg" xmlns:xlink="http://www.w3.org/1999/xlink">
    <title>SJSU Logo</title>
    <defs>
        <polygon id="path-1" points="0.162197802 0.0120565523 89.5485298 0.0120565523 89.5485298 47.2272377 0.162197802 47.2272377"></polygon>
    </defs>
    <g id="Footer" stroke="none" stroke-width="1" fill="none" fill-rule="evenodd">
        <g id="02_Footer_Desktop" transform="translate(-39.000000, -439.000000)">
            <g id="Group-2" transform="translate(39.000000, 439.000000)">
                <g id="SJSU-Primary-mark_Reversed">
                    <g id="Group-4" transform="translate(25.000000, 3.000000)">
                        <mask id="mask-2" fill="white">
                            <use xlink:href="#path-1"></use>
                        </mask>
                        <g id="Clip-2"></g>
                        <path d="M89.5485298,0.0775064076 L88.6963825,0.0775064076 L88.6963825,0.0760300951 L77.5320107,0.0760300951 L77.5320107,0.0775064076 L76.6879002,0.0775064076 L76.6879002,0.995034642 L79.3424889,2.31387383 C79.3424889,2.31387383 79.3468726,2.3155962 79.3468726,2.31633435 L79.4459935,2.36259215 C79.9681437,2.6637599 80.2189902,3.21885341 80.2659935,3.8130692 C80.2659935,3.86104936 80.2659935,3.91690318 80.2659935,3.97669384 L80.278414,23.4566376 C80.278414,30.7232939 77.334256,34.800131 71.9186516,34.9895911 L71.903065,35.0262528 C71.6110603,35.0225621 71.3173508,35.0107516 71.0272943,35.0107516 C65.3053163,35.0107516 62.1921414,30.9321921 62.1921414,23.4566376 L62.1921414,7.94945085 C62.1921414,5.72661629 62.1843481,4.51997685 62.1880012,3.77493113 C62.2437719,3.19474031 62.4934007,2.6581007 63.0077576,2.36259215 L63.1049302,2.31633435 L63.109801,2.31387383 L65.763172,0.995034642 L65.763172,0.0775064076 L64.9385447,0.0775064076 L64.9385447,0.0760300951 L53.7790437,0.0760300951 L53.7790437,0.0775064076 L52.9295753,0.0775064076 L52.9295753,0.995034642 L55.5858687,2.31387383 C55.5858687,2.31387383 55.5865993,2.3155962 55.5907395,2.31633435 L55.6849896,2.36259215 C56.2772795,2.69943745 56.5205762,3.36107152 56.5205762,4.0369766 C56.5205762,4.0369766 56.5239857,4.04337396 56.5247164,4.04509632 L56.5247164,23.4566376 C56.5247164,27.502226 56.4156103,31.2705138 59.3534363,34.5361171 C60.6541847,35.9639573 62.3338818,36.9653893 64.1626255,37.5982353 C64.1626255,37.5982353 64.4392872,37.7040377 64.9697178,37.8538834 C65.1893911,37.9102294 65.4107692,37.9724805 65.6345827,38.0261199 C68.1803089,38.650354 73.5681497,39.5388481 78.4891238,37.5458262 C78.5149391,37.5337697 78.5407544,37.5246657 78.5646213,37.5133473 C78.6274547,37.4914487 78.7000297,37.4702882 78.762376,37.445683 L78.7421622,37.445683 C80.3958004,36.8044713 81.9176834,35.8524957 83.1163885,34.5361171 C86.0534838,31.2705138 85.9424295,27.502226 85.9424295,23.4566376 L85.9619127,4.00966482 C85.9619127,3.9953938 85.9619127,3.98678198 85.9619127,3.97201885 C85.9794476,3.3175203 86.2198218,2.68639669 86.7916543,2.36259215 L86.8868785,2.31633435 C86.8888268,2.3155962 86.8936977,2.31387383 86.8936977,2.31387383 L86.8917493,2.31387383 L89.5485298,0.995034642 L89.5485298,0.0775064076" id="Fill-1" fill="#FFFFFE" mask="url(#mask-2)"></path>
                        <path d="M19.843659,0.0120565523 L6.68542323,0.0120565523 L6.68542323,0.927370318 L9.34220374,2.24743977 L9.34098604,2.24743977 C9.34098604,2.24743977 9.34512623,2.24867003 9.34731809,2.25039239 L9.44205524,2.29566598 C9.99951886,2.61110475 10.242572,3.21885341 10.2698485,3.85071517 L10.2698485,30.9563053 C10.0966914,39.1279411 8.36414612,43.3706173 0.162197802,46.2322031 L0.162197802,47.2420008 C0.162197802,47.2420008 8.8003267,47.1868852 12.7093911,42.4609627 L12.7069557,42.4609627 C14.7580517,40.0754877 15.9981586,36.4294879 16.2446213,31.0360261 L16.2446213,3.98112278 C16.2465696,3.97669384 16.2536323,3.97201885 16.2536323,3.97201885 C16.2536323,3.29488351 16.4947372,2.63201918 17.0860529,2.29566598 L17.1817642,2.25039239 C17.183956,2.24867003 17.1868785,2.24743977 17.1868785,2.24743977 L19.843659,0.927370318 L19.843659,0.0120565523" id="Fill-3" fill="#FFFFFE" mask="url(#mask-2)"></path>
                    </g>
                    <path d="M26.99148,29.8033215 C26.5155958,18.7315664 7.5930019,19.9804818 7.5930019,12.2484874 C7.5930019,8.34930406 11.6547876,6.85362032 14.8724744,6.85362032 C16.0728789,6.85362032 17.973256,7.11059979 19.350598,7.68120605 C20.4119801,8.07749417 22.3546473,9.27681274 23.5489756,10.7107436 C23.7166774,10.9451128 23.8289647,11.0982793 23.8289647,11.0982793 L23.8532693,11.0982793 C23.8537554,11.1014399 23.8583732,11.1014399 23.8586163,11.1053299 L24.2586701,11.1053299 L24.8497581,11.1092198 L22.8183792,3.51483216 L22.1225383,3.51483216 C21.8214042,4.03973158 20.701448,3.83818382 20.701448,3.83818382 C18.6739578,3.32811482 17.3826541,3.15768662 15.32454,3.03734145 C8.1692641,2.61601182 1.1624893,5.75179349 1.1624893,12.8682042 C1.1624893,24.8336741 20.5257257,22.5376342 20.5257257,31.3439828 C20.5257257,35.2976253 15.7211912,37.9325766 12.506421,37.9325766 C10.2380721,37.9325766 7.91357965,37.4456041 5.74001875,36.591275 C2.91728183,35.4080025 0.855036032,33.1073433 0.855036032,33.1073433 L0,33.24884 L2.18328274,41.5205643 L2.70364435,41.5205643 C2.70364435,41.5205643 3.05120021,40.7347955 3.98765667,40.9708665 L3.98449707,40.965761 C6.54668862,41.6630335 9.2114456,42 11.8810635,42 C21.7161653,42 27.2476505,35.8378414 26.99148,29.8033215" id="Fill-5" fill="#FFFFFE"></path>
                    <path d="M74.9913538,29.8033215 C74.5198169,18.7315664 55.5956326,19.9804818 55.5956326,12.2484874 C55.5956326,8.34930406 59.6564401,6.85362032 62.8745577,6.85362032 C64.0730877,6.85362032 65.9774647,7.11059979 67.3526996,7.68120605 C68.4121992,8.07749417 70.3578964,9.27681274 71.5508361,10.7107436 C71.7209783,10.9451128 71.8332721,11.0982793 71.8332721,11.0982793 L71.8563628,11.0982793 C71.8563628,11.0982793 71.8592795,11.1014399 71.861224,11.1053299 L72.2595998,11.1053299 L72.8519376,11.1092198 L70.8204401,3.51483216 L70.1255308,3.51483216 C69.82365,4.03973158 68.7038715,3.83818382 68.7038715,3.83818382 C66.676506,3.32811482 65.3865853,3.15768662 63.3259205,3.03734145 C56.1724145,2.61601182 49.1615849,5.75179349 49.1615849,12.8682042 C49.1615849,24.8336741 68.5300834,22.5376342 68.5300834,31.3439828 C68.5300834,35.2976253 63.7235671,37.9325766 60.5069078,37.9325766 C58.2396419,37.9325766 55.9164721,37.4456041 53.741326,36.591275 C50.9203688,35.4080025 48.8545998,33.1073433 48.8545998,33.1073433 L48,33.24884 L50.1848685,41.5205643 L50.707448,41.5205643 C50.707448,41.5205643 51.0533228,40.7347955 51.9876463,40.9708665 L51.9876463,40.965761 C54.5492582,41.6630335 57.211254,42 59.8832153,42 C69.7167035,42 75.2494838,35.8378414 74.9913538,29.8033215" id="Fill-6" fill="#FFFFFE"></path>
                    <path d="M182.000247,15.6409364 C179.042927,15.6011068 177.176885,12.9174662 177.176885,10.3003702 C177.176885,7.46906873 179.055992,5.36635741 182.000247,5.35591428 C184.94179,5.36635741 186.820897,7.46906873 186.820897,10.3003702 C186.820897,12.9174662 184.959045,15.6011068 182.000247,15.6409364 Z M182.000247,4.00000792 C178.068,3.99442206 175,6.94448378 175,10.4701318 C175,14.3272883 178.188788,17 181.971159,17 C181.981019,17 181.989647,17 181.989647,17 C182.010846,17 182.018488,17 182.029088,17 C185.810719,17 189,14.3272883 189,10.4701318 C189,6.94448378 185.933232,3.99442206 182.000247,4.00000792 Z" id="Fill-7" fill="#FFFFFE"></path>
                    <path d="M157,27 L153.006289,27 L153.006289,27.3125206 L153.82053,27.761501 L153.818509,27.761501 L153.82053,27.761501 L153.847484,27.7773919 C154.030773,27.8919071 154.101527,28.1161451 154.101527,28.34568 C154.101527,28.34568 154.104223,28.3479501 154.106244,28.3507247 L154.106244,37.2365005 C154.106244,37.4819263 154.115229,38.129921 154.106244,38.6462485 C154.104223,38.8755312 154.024259,39.1080929 153.844564,39.2200858 L153.816038,39.2347155 L153.814016,39.2347155 L153,39.6877316 L153,40 L157,40 L157,39.6877316 L156.187107,39.2347155 L156.186433,39.2347155 L156.157008,39.2200858 C155.973046,39.1080929 155.901617,38.882846 155.901617,38.6512932 L155.899596,38.6512932 C155.895328,38.1226062 155.901617,37.469819 155.901617,37.2365005 L155.901617,28.34568 C155.901617,28.1161451 155.973046,27.8919071 156.157008,27.7773919 L156.186433,27.761501 L156.187107,27.761501 L157,27.3125206 L157,27" id="Fill-8" fill="#FFFFFE"></path>
                    <path d="M207,27 L203.003819,27 L203.003819,27.3125206 L203.818151,27.761501 L203.820173,27.761501 L203.8505,27.7773919 C204.029765,27.8919071 204.105021,28.1161451 204.105021,28.34568 L204.105021,37.2365005 C204.105021,37.4819263 204.113557,38.129921 204.105021,38.6462485 C204.105021,38.8755312 204.025946,39.1080929 203.846007,39.2200858 L203.815455,39.2347155 L203.813883,39.2347155 L203,39.6877316 L203,40 L207,40 L207,39.6877316 L206.186342,39.2347155 L206.156689,39.2200858 C205.9763,39.1080929 205.901494,38.882846 205.901494,38.6512932 C205.894305,38.1226062 205.901494,37.469819 205.901494,37.2365005 L205.901494,28.34568 C205.901494,28.1161451 205.9763,27.8919071 206.156689,27.7773919 L206.186342,27.761501 L207,27.3125206 L207,27" id="Fill-9" fill="#FFFFFE"></path>
                    <path d="M138,27.002712 L137.719118,27.002712 L137.719118,27 L134.062365,27 L134.062365,27.002712 L133.786052,27.002712 L133.786052,27.3069489 L134.655391,27.7443203 L134.655872,27.7457995 L134.690982,27.7613319 C134.864369,27.8604431 134.94517,28.0443659 134.958156,28.2418487 C134.958156,28.2608327 134.958156,28.2751323 134.958156,28.2963352 L134.962244,34.9062146 C134.962244,37.3240844 133.998156,38.6783577 132.224128,38.7441853 L132.218116,38.753554 C132.121443,38.7520747 132.026934,38.7491162 131.932184,38.7491162 C130.057876,38.7491162 129.037515,37.3933636 129.037515,34.9062146 L129.037515,29.6173249 C129.037515,28.8801544 129.033427,28.477546 129.03487,28.2305076 C129.05483,28.036723 129.132745,27.8589638 129.302525,27.7613319 L129.33499,27.7457995 L129.337876,27.7443203 L130.207455,27.3069489 L130.207455,27.002712 L129.936914,27.002712 L129.936914,27 L126.278236,27 L126.278236,27.002712 L126,27.002712 L126,27.3069489 L126.872946,27.7443203 L126.872946,27.7457995 L126.902044,27.7613319 C127.098036,27.8732634 127.175471,28.0917026 127.175471,28.3190173 L127.178116,28.3212363 L127.178116,34.9062146 C127.178116,36.2513658 127.145651,37.5052952 128.104449,38.5905876 C128.532986,39.0676527 129.083928,39.3972838 129.682244,39.6083266 L129.673828,39.6083266 C129.673828,39.6083266 129.772665,39.6450618 129.946533,39.6931382 C130.019639,39.7116291 130.092265,39.7335716 130.163447,39.7525556 C131.000561,39.9606398 132.764729,40.2535356 134.375711,39.5905753 C134.383888,39.5883564 134.393747,39.5841651 134.402645,39.5826859 C134.423327,39.5743033 134.448818,39.5671535 134.466854,39.5572917 L134.459158,39.5572917 C135.003848,39.3450162 135.500681,39.0272193 135.892665,38.5905876 C136.855551,37.5052952 136.820441,36.2513658 136.820441,34.9062146 L136.824529,28.3076763 L136.824529,28.3005265 C136.830782,28.0783891 136.91014,27.8675929 137.096513,27.7613319 L137.131142,27.7457995 L137.131142,27.7443203 L138,27.3069489 L138,27.002712" id="Fill-10" fill="#FFFFFE"></path>
                    <path d="M207.673398,14.0164181 L207.018549,15.0020836 C207.018549,15.0020836 207.018549,15.0020836 207.018079,15.0043409 L207.01126,15.0103602 C206.959531,15.0921228 206.617175,15.5583702 205.918826,15.607528 L202.032057,15.607528 L202.0377,10.9332665 C202.0377,10.9332665 203.162582,10.9372793 203.890793,10.9372793 C204.103355,10.9372793 204.314035,11.0192927 204.421962,11.2214419 L204.434659,11.2540466 L204.436775,11.2570563 L204.809933,12.1632165 L205.098208,12.1632165 L205.098208,8.73445488 L204.809933,8.73445488 L204.431367,9.22778925 C204.242319,9.46003511 204.099828,9.51772037 203.880682,9.51772037 L202.0377,9.51772037 L202.0377,5.41780333 L205.486885,5.41780333 C205.699446,5.41780333 205.911302,5.50558524 206.06461,5.72328439 L206.725807,6.68311693 L207.050293,6.68311693 L206.374282,4.21820076 L206.314793,4 L206.16172,4 C205.923294,4.13693979 205.745768,4.09681091 205.432804,4.09681091 L199.182699,4.09681091 L199.182699,4.09831574 L199,4.09831574 L199,4.41031775 L199.854478,4.85374182 L199.855889,4.85524666 L199.882694,4.8710474 C200.074329,4.98365906 200.151217,5.21164123 200.151217,5.43962341 C200.151217,5.43962341 200.15545,5.44514113 200.160153,5.44689676 C200.162739,6.02926707 200.157331,6.66631297 200.157331,6.86796057 L200.157331,14.2747477 C200.157331,14.4839195 200.160153,15.1086759 200.151217,15.660448 C200.151217,15.891189 200.074329,16.1121486 199.882694,16.2265159 L199.855889,16.2425675 L199.854478,16.2425675 L199,16.6912585 L199,17 L207.004677,17 L208,14.0164181 L207.673398,14.0164181" id="Fill-11" fill="#FFFFFE"></path>
                    <path d="M264.675464,14.0164181 L264.021688,15.0020836 L264.016985,15.0043409 L264.012281,15.0103602 C263.960544,15.0921228 263.614842,15.5583702 262.918735,15.607528 L259.031356,15.607528 L259.03606,10.9332665 C259.03606,10.9332665 260.160178,10.9372793 260.886857,10.9372793 C261.105566,10.9372793 261.312516,11.0192927 261.418343,11.2214419 L261.434805,11.2540466 L261.437157,11.2570563 L261.808727,12.1632165 L262.10034,12.1632165 L262.10034,8.73445488 L261.808727,8.73445488 L261.432454,9.22778925 C261.241965,9.46003511 261.098511,9.51772037 260.882153,9.51772037 L259.03606,9.51772037 L259.03606,5.41780333 L262.48602,5.41780333 C262.700026,5.41780333 262.916384,5.50558524 263.064541,5.72328439 L263.727724,6.68311693 L264.05226,6.68311693 L263.374967,4.21820076 L263.313823,4 L263.163313,4 C262.921087,4.13693979 262.74706,4.09681091 262.434283,4.09681091 L256.181082,4.09681091 L256.181082,4.09831574 L256,4.09831574 L256,4.41031775 L256.85132,4.85374182 L256.85132,4.85524666 L256.884244,4.8710474 C257.074732,4.98365906 257.152339,5.21164123 257.152339,5.43962341 C257.152339,5.43962341 257.15469,5.44514113 257.157042,5.44689676 C257.161745,6.02926707 257.157042,6.66631297 257.157042,6.86796057 L257.157042,14.2747477 C257.157042,14.4839195 257.157042,15.1086759 257.152339,15.660448 C257.152339,15.891189 257.074732,16.1121486 256.884244,16.2265159 L256.85132,16.2425675 L256,16.6912585 L256,17 L264.007578,17 L265,14.0164181 L264.675464,14.0164181" id="Fill-12" fill="#FFFFFE"></path>
                    <path d="M180.671299,37.0143301 L180.01672,38.0014465 L180.014133,38.0021987 L180.008726,38.0124785 C179.957939,38.0922101 179.615131,38.5578121 178.915643,38.6044475 L175.029782,38.6044475 L175.034485,33.9321298 C175.034485,33.9321298 176.162835,33.93564 176.888422,33.93564 C177.099561,33.93564 177.313287,34.0183803 177.419327,34.2212193 L177.432259,34.253814 C177.432259,34.2550676 177.43555,34.256572 177.43555,34.256572 L177.805397,35.1632047 L178.097654,35.1632047 L178.097654,31.7307373 L177.805397,31.7307373 L177.428732,32.2301877 C177.240634,32.4591024 177.094859,32.5180235 176.879487,32.5180235 L175.034485,32.5180235 L175.034485,28.4176165 L178.485605,28.4176165 C178.699566,28.4176165 178.910001,28.5068757 179.064005,28.7262628 L179.722582,29.681286 L180.049167,29.681286 L179.371545,27.2213929 L179.312294,27 L179.161111,27 C178.9187,27.1381512 178.74612,27.0992883 178.430822,27.0992883 L172.18269,27.0992883 L172.18269,27.1020463 L172,27.1020463 L172,27.4114448 L172.853023,27.8562364 L172.853963,27.8577407 L172.881943,27.8735366 C173.072156,27.9873672 173.151157,28.2095122 173.151157,28.4406835 C173.151157,28.4406835 173.154449,28.4456981 173.157035,28.4492083 C173.161973,29.0321511 173.155154,29.6639858 173.155154,29.8698336 L173.155154,37.2733322 C173.155154,37.4819379 173.155154,38.1080059 173.151157,38.659357 C173.151157,38.8895254 173.072156,39.1134255 172.881943,39.2247488 L172.853963,39.239291 L172.853023,39.239291 L172,39.6895986 L172,40 L180.005199,40 L181,37.0143301 L180.671299,37.0143301" id="Fill-13" fill="#FFFFFE"></path>
                    <path d="M218.241768,27 L218.132401,27 C217.912246,27.0976596 217.641195,27.14073 217.200885,27.1364731 L210.7958,27.1364731 C210.431716,27.14073 210.08373,27.0976596 209.864995,27 L209.753734,27 L209.753734,27.0130213 L209,29.7124338 L209.326918,29.7124338 L209.928911,28.8507753 C210.08373,28.6314167 210.29844,28.546528 210.515044,28.546528 L210.517174,28.5437735 L213.059608,28.5437735 L213.059608,38.6618126 L213.057004,38.6630646 C213.057004,38.893942 212.982198,39.1160551 212.789267,39.2294905 L212.758729,39.2437638 L212.758729,39.24752 L211.901309,39.6909949 L211.901309,40 L216.10887,40 L216.10887,39.6909949 L215.25003,39.24752 L215.25216,39.2452663 C215.25216,39.2452663 215.25003,39.2452663 215.248373,39.2437638 L215.218308,39.2294905 C215.030111,39.1160551 214.949151,38.893942 214.949151,38.6653183 L214.948678,38.6618126 L214.948678,28.5437735 L217.483536,28.5437735 L217.484956,28.546528 C217.699666,28.546528 217.91627,28.6314167 218.071089,28.8507753 L218.669768,29.7124338 L219,29.7124338 L218.241768,27" id="Fill-14" fill="#FFFFFE"></path>
                    <path d="M234.240653,4 L234.135589,4 C233.91221,4.09588645 233.641032,4.1414513 233.203029,4.13469168 L226.802177,4.13469168 C226.437293,4.1414513 226.089446,4.09588645 225.86725,4 L225.760057,4 L225.755324,4.01101568 L225,6.71486346 L225.331046,6.71486346 L225.933507,5.84838039 C226.089446,5.629569 226.300284,5.54269537 226.517511,5.54269537 L229.062234,5.54269537 L229.062234,15.6618457 C229.062234,15.8909217 228.984146,16.1147402 228.791292,16.2276509 L228.76266,16.2436737 L228.759347,16.2436737 L227.904401,16.6888071 L227.904401,17 L232.10956,17 L232.10956,16.6888071 L231.252485,16.2436737 L231.251065,16.2436737 L231.221249,16.2276509 C231.030525,16.1147402 230.951018,15.8909217 230.951018,15.6630975 C230.951018,15.6630975 230.948888,15.6585911 230.946758,15.6573393 L230.946758,5.54269537 L233.484146,5.54269537 C233.699479,5.54269537 233.915523,5.629569 234.070279,5.84838039 L234.67274,6.71486346 L235,6.71486346 L234.240653,4" id="Fill-15" fill="#FFFFFE"></path>
                    <path d="M254.244792,4 L254.13589,4 C253.91572,4.09588645 253.643466,4.1414513 253.200758,4.13469168 L246.799242,4.13469168 C246.432292,4.1414513 246.08428,4.09588645 245.866477,4 L245.755208,4 L245.755208,4.01101568 L245,6.71486346 L245.329072,6.71486346 L245.92803,5.84838039 C246.08428,5.629569 246.299716,5.54269537 246.519886,5.54269537 L249.060133,5.54269537 L249.060133,15.6618457 C249.060133,15.8909217 248.97964,16.1147402 248.792614,16.2276509 L248.761837,16.2436737 L248.75947,16.2436737 L247.902462,16.6888071 L247.902462,17 L252.109375,17 L252.109375,16.6888071 L251.252367,16.2436737 L251.25,16.2436737 L251.219223,16.2276509 C251.02983,16.1147402 250.951705,15.8909217 250.951705,15.6630975 C250.951705,15.6630975 250.949337,15.6585911 250.94697,15.6573393 L250.94697,5.54269537 L253.484848,5.54269537 C253.700284,5.54269537 253.91572,5.629569 254.069602,5.84838039 L254.673295,6.71486346 L255,6.71486346 L254.244792,4" id="Fill-16" fill="#FFFFFE"></path>
                    <path d="M170.076398,27.0057259 L170.076398,27 L167.220312,27 L167.220312,27.0057259 L166.827727,27.0057259 L166.827727,27.3129321 L167.705427,27.7545721 L167.705427,27.7560658 L167.736833,27.7717497 C167.746497,27.7759819 167.755436,27.7846952 167.765824,27.7924127 C167.765824,27.7924127 168.031574,27.9681725 167.946051,28.2905647 C167.938562,28.3074934 167.934938,28.3234263 167.930348,28.3383634 C167.926724,28.3520558 167.922617,28.3677397 167.91561,28.3789425 C167.897491,28.4212643 167.888552,28.4456615 167.888552,28.4456615 C167.814384,28.6535361 167.718714,28.8992512 167.604925,29.2114365 L164.736276,36.599571 L161.717357,28.9908654 C161.65551,28.8143588 161.557907,28.5477317 161.46562,28.2661675 C161.421409,28.047588 161.532782,27.9017024 161.599461,27.8344855 C161.604293,27.8332408 161.604293,27.8317471 161.608642,27.8295065 C161.616131,27.8252743 161.620479,27.8202953 161.62507,27.8160631 C161.643672,27.8003792 161.664691,27.7846952 161.688366,27.7717497 L161.717357,27.7560658 L161.718807,27.7545721 L162.593124,27.3129321 L162.593124,27.0057259 L161.623137,27.0057259 L161.623137,27 L158.34475,27 L158.34475,27.0057259 L158,27.0057259 L158,27.3129321 L158.908381,27.7717497 C159.095856,27.8790479 159.292511,28.0090006 159.445196,28.3074934 L164.101134,40 L164.776621,40 L169.525088,28.3570348 C169.529195,28.3533005 169.533544,28.3520558 169.533544,28.3520558 C169.686471,28.0216971 169.898588,27.8847737 170.091377,27.7717497 L171,27.3129321 L171,27.0057259 L170.076398,27.0057259" id="Fill-17" fill="#FFFFFE"></path>
                    <path d="M230.415554,27 L226.692472,27 L226.692472,27.3122834 L227.552649,27.7612225 L227.552649,27.7627409 L227.581835,27.7786841 C227.593463,27.7829862 227.602954,27.7918435 227.613158,27.7996885 L227.610548,27.7996885 C227.610548,27.7996885 227.923059,28.0104925 227.759566,28.395912 C227.619327,28.6763091 225.161476,32.7076504 225.161476,32.7076504 L222.676336,28.395912 C222.557691,28.1127312 222.696031,27.9231847 222.774337,27.8424567 C222.777185,27.8411914 222.778371,27.839673 222.779795,27.8373954 C222.786676,27.8330932 222.790473,27.8280319 222.800676,27.8237298 C222.816575,27.8077866 222.83627,27.7918435 222.859287,27.7786841 L222.890609,27.7627409 L222.893457,27.7612225 L222.890609,27.7612225 L223.750074,27.3122834 L223.750074,27 L219,27 L219,27.3122834 L219.889363,27.7786841 C220.080619,27.893576 220.272112,28.0416196 220.469538,28.361242 C220.469538,28.361242 220.470962,28.3642788 220.474521,28.3642788 C220.605031,28.5725521 220.732693,28.794744 220.871982,29.0351567 L223.953195,34.3105704 L223.953195,37.2362663 C223.953195,38.0017909 223.957228,38.4266887 223.957228,38.7020245 C223.947737,38.9133346 223.870143,39.1152813 223.692887,39.2213159 L223.661565,39.2357407 L223.661565,39.2395367 L222.8021,39.6877166 L222.8021,40 L227.012339,40 L227.012339,39.6877166 L226.153586,39.2395367 L226.153586,39.2357407 L226.121789,39.2213159 C225.929584,39.106677 225.851278,38.8822075 225.851278,38.6511583 C225.851278,38.6511583 225.851278,38.6476153 225.847244,38.6476153 L225.847244,34.3105704 L228.905203,29.3765427 L229.522869,28.3642788 C229.713413,28.0327623 229.916533,27.893576 230.107789,27.7786841 L231,27.3122834 L231,27 L230.415554,27" id="Fill-18" fill="#FFFFFE"></path>
                    <path d="M175,4 L170.318106,4 L170.318106,4.31145508 L171.265187,4.75753913 L171.266493,4.75979969 L171.300168,4.77637714 C171.49491,4.88262351 171.584188,5.08783222 171.596196,5.30032496 L171.596196,14.4854869 C171.530412,17.252916 170.916949,18.6896281 168,19.6604135 L168,20 C168,20 171.072534,19.9814132 172.462614,18.3829453 C173.19146,17.5731621 173.632109,16.339147 173.721909,14.5128648 L173.721909,5.3462897 L173.723476,5.34478266 C173.723476,5.11345191 173.806489,4.88764698 174.01846,4.77637714 L174.052135,4.75979969 L174.053701,4.75753913 L175,4.31145508 L175,4" id="Fill-19" fill="#FFFFFE"></path>
                    <path d="M134.997234,12.9340996 C134.84024,9.24550807 128.530457,9.66237948 128.530457,7.08349135 C128.530457,5.78256928 129.884315,5.28486341 130.958611,5.28486341 C131.358054,5.28486341 131.991645,5.37107056 132.44993,5.56033555 C132.803716,5.69123366 133.452688,6.09296386 133.850911,6.56966743 C133.904625,6.64903662 133.943935,6.70032132 133.943935,6.70032132 L133.951748,6.70032132 L133.954434,6.7017866 L134.0875,6.7017866 L134.283071,6.7037403 L133.606996,4.17027577 L133.376267,4.17027577 C133.276162,4.34659748 132.89967,4.28041579 132.89967,4.28041579 C132.224084,4.10922255 131.794853,4.0532978 131.109257,4.01227003 C128.721877,3.87282447 126.386747,4.91927671 126.386747,7.28838597 C126.386747,11.2798015 132.844978,10.5127288 132.844978,13.4506098 C132.844978,14.7661847 131.241102,15.6443742 130.169491,15.6443742 C129.41431,15.6443742 128.638375,15.4817285 127.914689,15.1972204 C126.974192,14.8028166 126.285909,14.0354997 126.285909,14.0354997 L126,14.0836097 L126.727348,16.8402848 L126.898991,16.8402848 C126.898991,16.8402848 127.016919,16.5811749 127.329442,16.6576135 L127.326512,16.655904 C128.181555,16.8896158 129.071512,17 129.961469,17 C133.238317,17 135.081468,14.9469022 134.997234,12.9340996" id="Fill-20" fill="#FFFFFE"></path>
                    <path d="M198.997233,12.9340996 C198.839027,9.24550807 192.530319,9.66237948 192.530319,7.08349135 C192.530319,5.78256928 193.884103,5.28486341 194.957121,5.28486341 C195.357763,5.28486341 195.990587,5.37107056 196.449579,5.56033555 C196.801881,5.69123366 197.451307,6.09296386 197.848775,6.56966743 C197.904196,6.64903662 197.94277,6.70032132 197.94277,6.70032132 L197.950339,6.70032132 L197.951804,6.7017866 L198.085595,6.7017866 L198.084863,6.7017866 L198.28262,6.7037403 L197.606339,4.17027577 L197.375866,4.17027577 C197.272837,4.34659748 196.900027,4.28041579 196.900027,4.28041579 C196.225943,4.10922255 195.795027,4.0532978 195.107026,4.01227003 C192.724414,3.87282447 190.385261,4.91927671 190.385261,7.28838597 C190.385261,11.2798015 196.841676,10.5127288 196.841676,13.4506098 C196.841676,14.7661847 195.24155,15.6443742 194.168532,15.6443742 C193.412415,15.6443742 192.63872,15.4817285 191.913609,15.1972204 C190.971697,14.8028166 190.287359,14.0354997 190.287359,14.0354997 L190,14.0836097 L190.726576,16.8402848 L190.899674,16.8402848 C190.899674,16.8402848 191.018085,16.5811749 191.328393,16.6576135 L191.32644,16.655904 C192.182657,16.8896158 193.070612,17 193.960521,17 C197.239144,17 199.081463,14.9469022 198.997233,12.9340996" id="Fill-21" fill="#FFFFFE"></path>
                    <path d="M224.997283,12.9340996 C224.837659,9.24550807 218.53446,9.66237948 218.53446,7.08349135 C218.53446,5.78256928 219.886383,5.28486341 220.957378,5.28486341 C221.355217,5.28486341 221.992249,5.37107056 222.451596,5.56033555 C222.80477,5.69123366 223.453518,6.09296386 223.850625,6.56966743 C223.906518,6.64903662 223.942397,6.70032132 223.942397,6.70032132 L223.951428,6.70032132 L223.951428,6.7017866 L224.086156,6.7017866 L224.282635,6.7037403 L223.607528,4.17027577 L223.374926,4.17027577 C223.275344,4.34659748 222.900691,4.28041579 222.900691,4.28041579 C222.224119,4.10922255 221.79455,4.0532978 221.107483,4.01227003 C218.724837,3.87282447 216.39003,4.91927671 216.39003,7.28838597 C216.39003,11.2798015 222.841869,10.5127288 222.841869,13.4506098 C222.841869,14.7661847 221.239771,15.6443742 220.168776,15.6443742 C219.414833,15.6443742 218.637947,15.4817285 217.915001,15.1972204 C216.971413,14.8028166 216.286542,14.0354997 216.286542,14.0354997 L216,14.0836097 L216.728315,16.8402848 L216.902828,16.8402848 C216.902828,16.8402848 217.01559,16.5811749 217.330933,16.6576135 L217.330933,16.655904 C218.183238,16.8896158 219.07313,17 219.960581,17 C223.237512,17 225.080756,14.9469022 224.997283,12.9340996" id="Fill-22" fill="#FFFFFE"></path>
                    <path d="M201.997029,35.9332752 C201.840026,32.2433568 195.53207,32.6587473 195.53207,30.0823979 C195.53207,28.7844551 196.884054,28.2853027 197.957681,28.2853027 C198.357147,28.2853027 198.991996,28.3678435 199.449576,28.5585666 C199.803626,28.6945881 200.451172,29.0941054 200.849906,29.5720121 C200.907286,29.6477153 200.94318,29.6997307 200.94318,29.6997307 L200.952946,29.6997307 L200.952946,29.7024169 L201.08602,29.7024169 L201.282091,29.7038821 L200.607442,27.172222 L200.373281,27.172222 C200.273658,27.3468277 199.900807,27.2808927 199.900807,27.2808927 C199.22396,27.1092175 198.795193,27.0515854 198.10687,27.0125128 C195.722769,26.8716072 193.386037,27.9180202 193.386037,30.2899711 C193.386037,34.2765971 199.843426,33.5124836 199.843426,36.4478125 C199.843426,37.7643148 198.241409,38.6446693 197.169247,38.6446693 C196.412312,38.6446693 195.639262,38.4820296 194.911139,38.196067 C193.970098,37.8033874 193.283729,37.0380529 193.283729,37.0380529 L193,37.0829864 L193.727634,39.8402908 L193.901485,39.8402908 C193.901485,39.8402908 194.016979,39.5787486 194.330252,39.6566495 C195.180217,39.8893757 196.069006,40 196.956817,40 C200.239474,40 202.084442,37.9457582 201.997029,35.9332752" id="Fill-23" fill="#FFFFFE"></path>
                    <path d="M139.769963,11.0244419 L141.66398,5.85548437 L143.593407,11.0244419 L139.769963,11.0244419 Z M148.08254,16.2226752 C147.884249,16.1073384 147.67326,15.9685304 147.516239,15.6348864 C147.232479,15.1349253 147.132112,14.7654436 146.906716,14.1852262 L143.406349,5.04762182 C142.999756,4.01438556 142.239316,4 142.239316,4 L139.473504,4 L139.473504,4.31294894 L140.155556,4.6824306 C140.322344,4.77934382 140.433944,4.90225199 140.437851,5.09885459 C140.430281,5.22933411 140.40293,5.30782372 140.40293,5.30782372 C139.943834,6.59141914 137.077411,14.1852262 137.077411,14.1852262 C136.887912,14.6897301 136.716972,15.1889342 136.484249,15.6348864 L136.482784,15.6348864 C136.47033,15.6598719 136.457143,15.6838478 136.445177,15.7058047 C136.437363,15.7234712 136.42735,15.7411376 136.416361,15.7618327 C136.269841,16.0061347 136.087668,16.1219763 135.918193,16.2226752 L135,16.6860415 L135,17 L139.228327,17 L139.228327,16.6860415 L138.343834,16.2380703 L138.308181,16.2226752 C138.299145,16.2156086 138.289621,16.2072801 138.279121,16.2007183 C138.279121,16.2007183 138.279121,16.1956707 138.273748,16.1901184 C138.090842,16.0439915 138.095726,15.7893419 138.095726,15.7893419 L138.098413,15.7893419 C138.095726,15.7552708 138.098413,15.7234712 138.104762,15.6863716 C138.117949,15.6227723 138.136508,15.5556397 138.153114,15.4882547 C138.204396,15.3216851 139.28083,12.4602213 139.28083,12.4602213 L144.133089,12.4602213 L145.260806,15.4832071 L145.299389,15.5940012 C145.394628,15.8925646 145.274725,16.0783149 145.19072,16.155795 C145.189988,16.1575616 145.187302,16.1575616 145.187302,16.1575616 C145.180952,16.1674044 145.175336,16.1729567 145.168987,16.1752281 C145.149206,16.1916327 145.12967,16.2072801 145.107204,16.2226752 L145.074481,16.2380703 L145.072283,16.2380703 L144.18779,16.6860415 L144.18779,17 L149,17 L149,16.6860415 L148.08254,16.2226752 Z" id="Fill-24" fill="#FFFFFE"></path>
                    <path d="M237.770868,11.0244419 L239.662119,5.85548437 L241.592935,11.0244419 L237.770868,11.0244419 Z M246.079285,16.2226752 C245.88635,16.1073384 245.671435,15.9685304 245.517575,15.6348864 C245.234278,15.1349253 245.131705,14.7654436 244.904579,14.1852262 L241.40635,5.04762182 C240.999232,4.01438556 240.238727,4 240.238727,4 L237.477802,4 L237.477802,4.31294894 L238.156249,4.6824306 C238.321587,4.77934382 238.433685,4.90225199 238.435883,5.09885459 C238.429533,5.22933411 238.403646,5.30782372 238.403646,5.30782372 C237.947196,6.59141914 235.076127,14.1852262 235.076127,14.1852262 C234.889786,14.6897301 234.71761,15.1889342 234.486088,15.6348864 L234.483402,15.6348864 C234.472167,15.6598719 234.456537,15.6838478 234.445303,15.7058047 C234.437,15.7234712 234.425765,15.7411376 234.415264,15.7618327 C234.269708,16.0061347 234.087763,16.1219763 233.918273,16.2226752 L233,16.6860415 L233,17 L237.229673,17 L237.229673,16.6860415 L236.34437,16.2380703 L236.3114,16.2226752 C236.300166,16.2156086 236.289664,16.2072801 236.280628,16.2007183 C236.280628,16.2007183 236.27843,16.1956707 236.271592,16.1901184 C236.090624,16.0439915 236.096973,15.7893419 236.096973,15.7893419 L236.101125,15.7893419 C236.096973,15.7552708 236.101125,15.7234712 236.105277,15.6863716 C236.117976,15.6227723 236.135316,15.5556397 236.155587,15.4882547 C236.203454,15.3216851 237.280959,12.4602213 237.280959,12.4602213 L242.129978,12.4602213 L243.260968,15.4832071 L243.297601,15.5940012 C243.392848,15.8925646 243.278064,16.0783149 243.192586,16.155795 L243.190144,16.1615997 C243.180375,16.1674044 243.175491,16.1729567 243.168164,16.1752281 C243.148626,16.1916327 243.13031,16.2072801 243.107109,16.2226752 L243.07536,16.2380703 L243.072185,16.2380703 L243.07536,16.2380703 L242.189568,16.6860415 L242.189568,17 L247,17 L247,16.6860415 L246.079285,16.2226752 Z" id="Fill-25" fill="#FFFFFE"></path>
                    <path d="M185.044822,28.1724138 L186.567115,28.1651286 L186.567115,28.1623652 C187.714791,28.224415 188.6544,28.805472 188.691201,30.403944 C188.737202,32.6261794 187.646379,33.0183238 186.397735,33.1157946 L185.044822,33.1157946 L185.044822,28.1724138 Z M192.120547,39.1838587 C191.87615,39.0620201 191.632932,38.8773781 191.416844,38.6776633 C191.260439,38.5261815 191.02359,38.2435663 191.02359,38.2435663 C190.716678,37.9725068 188.937249,34.7069815 188.937249,34.7069815 C188.676103,34.0990446 188.207596,33.9621332 187.965086,33.9319876 C189.432413,33.6275167 190.701345,32.2837753 190.701345,30.3411406 C190.701345,28.5532536 189.226704,27.0045218 186.747818,27.0045218 L183.399623,27.0045218 L183.399623,27 L182,27 L182,27.3115048 L182.854447,27.7591674 L182.888417,27.7772548 C183.076197,27.8897985 183.155933,28.1133786 183.155933,28.3409781 C183.155933,28.3409781 183.15782,28.3482633 183.160651,28.3497706 C183.165369,28.8911358 183.15782,29.5337402 183.15782,29.7744028 L183.15782,37.1864595 C183.15782,37.4100396 183.165369,38.0461124 183.160651,38.602048 C183.160651,38.8304012 183.08351,39.0539813 182.894551,39.166525 L182.862232,39.1838587 L182.860816,39.1838587 L182.007077,39.6280043 L182.007077,39.9415189 L183.409295,39.9415189 L183.409295,39.9392579 L184.806086,39.9392579 L184.806086,39.9415189 L186.20736,39.9415189 L186.20736,39.6280043 L185.352913,39.1838587 L185.354329,39.1838587 L185.349611,39.1838587 L185.321774,39.166525 C185.130927,39.0539813 185.054494,38.8276378 185.054494,38.5997871 C185.054494,38.5997871 185.051191,38.5970238 185.049776,38.5947628 C185.035386,38.0604316 185.044822,37.4632969 185.044822,37.1864595 L185.044822,34.3364414 L185.537155,34.3371951 L185.525124,34.3427218 C185.525124,34.3427218 185.539278,34.3384511 185.564992,34.3371951 L185.895494,34.3371951 C186.212314,34.3731186 186.664544,34.5180688 187.014626,35.0220033 L187.20736,35.3644074 L187.20736,35.367422 L188.937249,38.4309716 C189.241566,38.8650687 190.152159,40.1902203 192.575372,39.97694 L192.708894,39.9668914 C192.836046,39.9668914 192.936306,39.9580989 193,39.9503113 L193,39.6393089 L192.120547,39.1838587 Z" id="Fill-26" fill="#FFFFFE"></path>
                    <path d="M162,4.01938946 L161.797531,4.01938946 L161.797531,4.00000165 L158.116073,4.00000165 L158.116073,4.01938946 L157.946397,4.01938946 L157.946397,4.32468612 L158.842726,4.75858041 L158.846204,4.7600529 L158.877754,4.77551407 C159.073764,4.88447847 159.156491,5.10093478 159.157981,5.31763651 L159.157981,13.5721809 L152.498863,4.57869098 C152.06312,3.99337544 151.353857,4.00000165 151.353857,4.00000165 L149.180607,4.00000165 L149.180607,4.01938946 L149,4.01938946 L149,4.32468612 L149.900055,4.75858041 L149.901298,4.7600529 L149.931357,4.77551407 C150.13333,4.88570555 150.221522,5.11124223 150.221522,5.33383392 L150.221522,15.3696027 C150.21233,15.5809053 150.13333,15.7833729 149.94204,15.8869382 L149.909993,15.9026448 L149.908502,15.9026448 L149.008695,16.3416928 L149.008695,16.643799 L150.485352,16.643799 L150.485352,16.636682 L151.583405,16.636682 L151.583405,16.643799 L153.060062,16.643799 L153.060062,16.3416928 L152.160255,15.9026448 L152.124482,15.8869382 C151.939154,15.7846 151.857918,15.5882677 151.847981,15.3835913 L151.847981,6.81197041 L157.946397,15.0628335 C157.946397,15.0628335 159.189283,16.707607 160.704944,16.9456599 C160.704944,16.9456599 161.233351,17.046771 161.834547,16.9731464 L161.834547,16.7623346 C161.776166,16.7407381 161.71704,16.7211048 161.649965,16.6928821 C160.9489,16.348319 160.807048,15.5485104 160.78295,15.0490903 L160.78295,5.31199196 C160.78767,5.09430857 160.869652,4.88447847 161.063922,4.77551407 L161.097957,4.7600529 L161.097957,4.75858041 L162,4.32468612 L162,4.01938946" id="Fill-27" fill="#FFFFFE"></path>
                    <path d="M152,27.0223313 L151.79705,27.0223313 L151.79705,27.000001 L148.118606,27.000001 L148.118606,27.0223313 L147.944719,27.0223313 L147.944719,27.325139 L148.843216,27.7604558 L148.845203,27.7619281 L148.877993,27.7773875 C149.075478,27.8887932 149.156211,28.1012985 149.161179,28.3182207 L149.161179,36.5710809 L142.498347,27.5786239 C142.067109,26.9943571 141.354919,27.000001 141.354919,27.000001 L139.184071,27.000001 L139.184071,27.0223313 L139,27.0223313 L139,27.325139 L139.899738,27.7604558 L139.901725,27.7619281 L139.93377,27.7773875 C140.132746,27.8887932 140.221925,28.109887 140.221925,28.3346617 L140.221925,38.3692778 C140.215466,38.57982 140.132746,38.7827552 139.941968,38.8867993 L139.913152,38.9010318 L139.909178,38.9010318 L139.010433,39.341747 L139.010433,39.6455363 L140.486481,39.6455363 L140.486481,39.6369478 L141.585195,39.6369478 L141.585195,39.6455363 L143.058013,39.6455363 L143.058013,39.341747 L142.163491,38.9010318 L142.160511,38.9010318 L142.126975,38.8867993 C141.941662,38.7842275 141.859687,38.5884085 141.849005,38.3840011 L141.849005,29.8133645 L147.944719,38.0622985 C147.944719,38.0622985 149.186766,39.7066377 150.706285,39.9461356 C150.706285,39.9461356 151.233161,40.0474805 151.83605,39.9721466 L151.83605,39.7608683 C151.776183,39.7427096 151.71582,39.7193978 151.650737,39.6919145 C150.949229,39.347391 150.807387,38.548165 150.785279,38.0473299 L150.785279,28.3125768 C150.790247,28.0956546 150.871725,27.8838855 151.065484,27.7773875 L151.097032,27.7619281 L151.09902,27.7604558 L152,27.325139 L152,27.0223313" id="Fill-28" fill="#FFFFFE"></path>
                    <polyline id="Fill-29" fill="#FFFFFE" points="205.479592 0 204.434029 0 201 2.60452342 201.164926 3 206 1.23004847 205.479592 0"></polyline>
                </g>
            </g>
        </g>
    </g>
</svg>